<svg fill="none" height="40" viewBox="0 0 40 40" width="40" xmlns="http://www.w3.org/2000/svg"><rect fill="#fff" height="18.5" rx="9.25" width="18.5" x="10.75" y="10.75"/><rect height="18.5" rx="9.25" stroke="#e43535" stroke-width="1.5" width="18.5" x="10.75" y="10.75"/><path d="m16.0102 17.347h-2.0073v-1.0591h5.3663v1.0591h-2.0073v6.153h-1.3517zm6.6061 5.0939c.8002 0 1.3987-.2152 1.7955-.6456.3967-.4371.5951-1.0625.5951-1.8762v-.0806c0-1.661-.8002-2.4915-2.4007-2.4915h-.7767v5.0939zm-2.1284-6.153h2.1889c1.2172 0 2.1418.3194 2.7739.9582.6388.6321.9583 1.4895.9583 2.5722v.0908c0 1.0893-.3195 1.9602-.9583 2.6125s-1.5702.9784-2.7941.9784h-2.1687z" fill="#e43535"/></svg>
