<svg fill="none" height="40" viewBox="0 0 40 40" width="40" xmlns="http://www.w3.org/2000/svg" xmlns:xlink="http://www.w3.org/1999/xlink"><mask id="a" fill="#000" height="28" maskUnits="userSpaceOnUse" width="28" x="6" y="6"><path d="m6 6h28v28h-28z" fill="#fff"/><path d="m8 20c0-6.6274 5.3726-11.99994 12-12 6.6274 0 12 5.3726 12 12s-5.3726 12-12 12c-6.6274-.0001-12-5.3726-12-12z" fill="#000"/></mask><path d="m8 20c0-6.6274 5.3726-11.99994 12-12 6.6274 0 12 5.3726 12 12s-5.3726 12-12 12c-6.6274-.0001-12-5.3726-12-12z" fill="#fff"/><g fill="#e43535"><path d="m8 20h-1.8zm12-12v-1.8zm12 12h1.8zm-12 12v1.8zm-12-12h1.8c0-5.6333 4.5667-10.19995 10.2-10.2v-1.8-1.8c-7.6215.00007-13.8 6.1785-13.8 13.8zm12-12v1.8c5.6333 0 10.2 4.5667 10.2 10.2h1.8 1.8c0-7.6215-6.1785-13.8-13.8-13.8zm12 12h-1.8c0 5.6333-4.5667 10.2-10.2 10.2v1.8 1.8c7.6215 0 13.8-6.1785 13.8-13.8zm-12 12v-1.8c-5.6333-.0001-10.2-4.5668-10.2-10.2h-1.8-1.8c0 7.6215 6.1785 13.7999 13.8 13.8z" mask="url(#a)"/><path d="m15.0222 17.07h-2.587v-1.365h6.916v1.365h-2.587v7.93h-1.742zm8.8029 8.06c-1.2047 0-2.1103-.2687-2.717-.806-.598-.5373-.936-1.274-1.014-2.21h1.664c.0607.5373.2383.9577.533 1.261.3033.3033.8147.455 1.534.455.52 0 .9403-.13 1.261-.39.3293-.26.494-.6067.494-1.04s-.1343-.7497-.403-.949-.78-.3597-1.534-.481c-1.1527-.1647-1.989-.4463-2.509-.845-.5113-.3987-.767-1.0227-.767-1.872 0-.7713.299-1.4083.897-1.911s1.378-.754 2.34-.754c2.054 0 3.1807.897 3.38 2.691h-1.586c-.0867-.494-.273-.8493-.559-1.066-.2773-.2167-.689-.325-1.235-.325-.5113 0-.9057.1127-1.183.338-.2773.2167-.416.5113-.416.884 0 .4073.1257.7107.377.91.26.1907.7757.3423 1.547.455 1.1613.1647 2.002.4463 2.522.845.5287.3987.793 1.0443.793 1.937 0 .8147-.3207 1.4993-.962 2.054-.6327.546-1.4517.819-2.457.819z"/></g></svg>