<svg fill="none" height="40" viewBox="0 0 40 40" width="40" xmlns="http://www.w3.org/2000/svg"><rect fill="#fff" height="18.5" rx="9.25" width="18.5" x="10.75" y="10.75"/><rect height="18.5" rx="9.25" stroke="#1c3341" stroke-width="1.5" width="18.5" x="10.75" y="10.75"/><path d="m16.1376 17.347h-2.0073v-1.0591h5.3663v1.0591h-2.0073v6.153h-1.3517zm6.8304 6.2539c-.9348 0-1.6375-.2085-2.1082-.6254-.464-.4169-.7263-.9885-.7868-1.7148h1.2911c.0471.4169.185.7431.4136.9784.2354.2354.6321.3531 1.1903.3531.4034 0 .7296-.1009.9784-.3026.2555-.2018.3833-.4708.3833-.807s-.1042-.5817-.3127-.7363c-.2085-.1547-.6052-.2791-1.1903-.3732-.8943-.1278-1.5433-.3464-1.9467-.6557-.3968-.3093-.5952-.7935-.5952-1.4525 0-.5985.232-1.0928.696-1.4828s1.0692-.585 1.8157-.585c1.5937 0 2.4679.696 2.6226 2.088h-1.2306c-.0673-.3833-.2119-.659-.4338-.8272-.2152-.1681-.5346-.2521-.9582-.2521-.3968 0-.7027.0874-.9179.2622-.2152.1681-.3228.3968-.3228.6859 0 .3161.0975.5515.2925.7061.2017.148.6019.2656 1.2004.3531.901.1277 1.5533.3463 1.9568.6556.4102.3093.6153.8103.6153 1.503 0 .6321-.2488 1.1633-.7464 1.5937-.4909.4236-1.1264.6355-1.9064.6355z" fill="#1c3341"/></svg>