<svg fill="none" height="27" viewBox="0 0 113 27" width="113" xmlns="http://www.w3.org/2000/svg"><g fill="#fff"><path clip-rule="evenodd" d="m13.2009 0c-7.29064 0-13.2009 5.91026-13.2009 13.2009 0 7.2907 5.91026 13.201 13.2009 13.201 7.2907 0 13.201-5.9103 13.201-13.201 0-7.29064-5.9103-13.2009-13.201-13.2009zm.0992 1.0103.0265 2.11575c.6209 0 1.2566.05913 1.8775.19218l.0887.01479-.2661 1.34529c1.0348.22175 2.0401.63568 2.9419 1.22702l1.1826-1.80358.0887.05914c.5618.38436 1.1088.81308 1.5819 1.28615l.9327-.93274c-2.1788-2.14564-5.161-3.47775-8.4544-3.504zm8.5875 3.63705-.9328.93274c.4731.47307.9018 1.00527 1.2862 1.56704l.0591.0887-1.2122.82787c.6504 1.02006 1.1087 2.114 1.3453 3.3115l.0147.0887-1.7888.3548c.0887.4287.1183.8574.1331 1.2861h4.5994c-.0254-3.29453-1.3577-6.27796-3.504-8.45745zm3.504 8.64965h-4.6142c-.0148.4731-.0591.9314-.1478 1.3897l-.0148.0887-.9905-.207c-.1626.8131-.5026 1.5818-.9609 2.2766l-.0592.0887-4.6272-3.1045 7.9179 7.9179c2.142-2.1789 3.4713-5.1593 3.4967-8.4501zm-3.6445 8.5979-7.9475-7.9474 1.8184 2.7793-.0887.0591c-.4731.3105-.9905.5174-1.5375.6209l-.0887.0148-.6061-3.1784v11.1484c3.2908-.0254 6.2712-1.3547 8.4501-3.4967zm-8.6423 3.4967v-11.1484l-1.5818 8.3674-.0887-.0148c-1.2418-.2366-2.40969-.6948-3.45931-1.3897l-.0887-.0591.7096-1.0792c-.41393-.2809-.81309-.5913-1.16789-.9461l-2.7732 2.7732c2.17884 2.142 5.15922 3.4713 8.45 3.4967zm-8.5905-3.6371 2.76587-2.7659c-.31045-.3104-.60612-.6652-.85744-1.0348l-2.24707 1.5375-.05914-.0887c-.82787-1.2123-1.38964-2.528-1.6853-3.9472l-.01479-.0887 1.46356-.3105c-.11827-.5913-.16262-1.1678-.1774-1.7592h-2.69231c.02543 3.2946 1.35771 6.278 3.50402 8.4575zm-3.50413-8.6349h2.69242c0-.547.05913-1.1235.16262-1.6705l.01478-.0887 4.02108.754c.13305-.6653.38437-1.301.76874-1.8775l.05913-.0887 3.72546 2.454-7.94743-7.94739c-2.14522 2.18211-3.47526 5.16815-3.4968 8.46479zm3.64448-8.61247 7.93275 7.94727-2.77927-4.16895.0887-.05913c.63567-.41394 1.33047-.7096 2.06967-.87222l-.7983-4.02108.0887-.01479c.6061-.11826 1.227-.1774 1.8479-.19218h.0148v-2.11588c-3.29673.02154-6.28284 1.35165-8.46495 3.49696zm2.92119 14.48147c.36958.3548.76873.6949 1.21223.9757l.07392.0444-.69482 1.0792c.99049.6209 2.06963 1.0496 3.20803 1.2861l1.6853-8.87zm-.99049-1.1531c.2661.3548.5322.6948.84265 1.0053l4.9672-4.9672zm5.39595-10.28922c-.68.14784-1.3157.39916-1.9071.78352l2.9271 4.4202zm-7.74651 11.66412 2.08446-1.434 6.57865-4.4646h-9.00313c0 .6061.05914 1.1975.19219 1.8036l.01478.0887-1.44877.3104c.29566 1.3305.82787 2.5576 1.58182 3.6959zm-.19218-7.643c-.0887.5174-.13305 1.0348-.14784 1.5374h8.27873zm7.34739-8.08655 1.7148 8.72225v-8.88487c-.5765 0-1.1383.05914-1.7148.16262zm9.1952 9.81615h-7.0664l.1626.0739h-.0148l4.8933 3.282c.4435-.6801.7392-1.4193.9018-2.2176l.0148-.0887.9905.207c.0739-.4139.1034-.8279.1182-1.2566zm-6.5195 3.9028c.4583-.1034.8871-.2808 1.2862-.5322l-1.9662-2.9862zm6.4013-5.3368-6.2682 1.2418h6.3864c-.0148-.4139-.0443-.8278-.1182-1.2418zm-5.4108-8.36737c-.5913-.11826-1.1826-.16261-1.7592-.1774v9.56487l4.5533-6.81516c-.9166-.59133-1.9071-1.00527-2.9715-1.21223l-.0887-.01479z" fill-rule="evenodd"/><path d="m30.8901 8.06461 2.372 10.13049h2.8632l1.5814-6.4251 1.5693 6.4369h3.0549l2.384-10.13041h-2.7195l-1.3896 6.37751-1.4855-6.37751h-2.5996l-1.3538 6.30631-1.3177-6.31819zm15.1905 0v10.13049h2.959v-10.13049zm5.0914 0v10.13049h2.5757v-6.3538l3.7257 6.3656h2.8272v-10.14229h-2.5637v5.71249l-3.2705-5.71249zm14.831 7.89769h-.6708v-5.6531h.6469c1.785 0 2.5397.8076 2.5397 2.7434v.1188c0 1.8765-.7547 2.7909-2.5158 2.7909zm-3.6179-7.89769v10.13049h3.7018c1.785 0 3.1746-.4632 4.0971-1.3658.9105-.867 1.3897-2.1259 1.3897-3.7173v-.1187c0-3.13537-1.8569-4.94057-5.4748-4.94057h-3.7138zm12.3392 5.79559v4.3349h2.9471v-4.3349l3.1746-5.79559h-2.8032l-1.7251 3.40849-1.7251-3.40849h-3.1867zm6.6728 4.4893c.4193 0 .8027-.1544 1.0662-.4276.2756-.2375.4313-.6057.4313-1.0095s-.1557-.7482-.4313-1.0213c-.2755-.2376-.6589-.4157-1.0662-.4157-.4193 0-.8026.1663-1.0422.4157-.2756.2731-.4193.6175-.4193 1.0213s.1437.7601.4193 1.0095c.2396.2732.6229.4276 1.0422.4276zm5.8582-10.28489-3.2705 10.13049h2.7314l.5391-1.8884h3.3903l.5391 1.8884h3.1027l-3.2465-10.13049zm.575 6.24689 1.1261-3.8954 1.1141 3.8954zm7.7509-6.24689v10.13049h2.9111v-3.4085h1.1022c2.5635 0 3.9775-1.1283 3.9775-3.2779v-.0594c0-2.14956-1.306-3.38469-4.0973-3.38469zm3.7497 4.73859h-.8386v-2.5534h.8626c.9101 0 1.4251.3563 1.4251 1.2233v.0594c0 .8432-.479 1.2707-1.4491 1.2707zm5.6781-4.73859v10.13049h2.911v-3.4085h1.103c2.563 0 3.977-1.1283 3.977-3.2779v-.0594c0-2.14956-1.306-3.38469-4.097-3.38469zm3.762 4.73859h-.839v-2.5534h.863c.91 0 1.426.3563 1.426 1.2233v.0594c-.012.8432-.48 1.2707-1.45 1.2707z"/></g></svg>